<?xml version="1.0" standalone="no"?>
<!DOCTYPE svg PUBLIC "-//W3C//DTD SVG 20010904//EN"
 "http://www.w3.org/TR/2001/REC-SVG-20010904/DTD/svg10.dtd">
<svg version="1.0" xmlns="http://www.w3.org/2000/svg"
 width="300.000000pt" height="133.000000pt" viewBox="0 0 300.000000 133.000000"
 preserveAspectRatio="xMidYMid meet">
<metadata>
Created by potrace 1.10, written by Peter Selinger 2001-2011
</metadata>
<g transform="translate(0.000000,133.000000) scale(0.100000,-0.100000)"
fill="#000000" stroke="none">
<path d="M2018 617 c-109 -188 -209 -361 -223 -384 l-26 -43 68 0 68 0 131
228 c73 125 151 262 175 304 24 43 46 77 49 78 3 0 13 -35 23 -78 l19 -79
-112 -194 c-62 -107 -121 -206 -131 -221 -11 -14 -19 -29 -19 -32 0 -3 30 -6
68 -6 l67 0 55 97 c30 54 67 119 82 146 14 27 28 50 31 53 2 2 21 -63 43 -146
l38 -150 58 0 c32 0 58 4 58 9 0 6 -23 94 -51 198 -29 103 -54 200 -56 214 -3
18 7 44 36 90 l41 64 -62 5 -61 5 -25 93 -25 92 -61 0 -61 -1 -197 -342z m290
286 c5 -10 15 -40 22 -68 14 -55 53 -105 82 -105 23 0 22 -2 -2 -50 -11 -22
-20 -47 -20 -56 0 -9 20 -91 45 -181 47 -172 53 -207 33 -201 -7 3 -28 56 -46
119 -18 63 -42 123 -53 134 -18 18 -22 19 -45 5 -15 -9 -57 -66 -98 -134 -67
-114 -96 -147 -96 -112 0 8 38 80 85 159 46 80 94 165 106 190 22 46 22 46 4
113 -21 79 -54 120 -84 105 -23 -13 -45 -48 -206 -326 -128 -220 -151 -255
-167 -255 -19 0 -2 35 134 269 242 421 236 411 269 411 17 0 32 -7 37 -17z"/>
<path d="M1020 636 c0 -115 2 -136 15 -136 13 0 15 19 13 132 -2 94 -7 133
-15 136 -10 3 -13 -28 -13 -132z"/>
<path d="M529 745 c0 -3 0 -58 -1 -122 l0 -118 42 -3 c54 -4 94 12 108 44 14
29 2 68 -24 78 -15 6 -16 8 0 24 30 34 19 74 -27 91 -29 11 -97 15 -98 6z
m101 -45 c16 -30 -4 -60 -40 -60 -28 0 -30 2 -30 40 0 38 2 40 30 40 19 0 33
-7 40 -20z m-14 -90 c17 0 25 -7 30 -25 8 -34 -11 -55 -52 -55 -34 0 -34 0
-34 46 0 38 3 45 16 40 9 -3 26 -6 40 -6z"/>
<path d="M925 740 c-8 -13 3 -30 20 -30 14 0 27 24 18 34 -10 9 -31 7 -38 -4z"/>
<path d="M1110 705 c0 -16 -6 -25 -15 -25 -8 0 -15 -4 -15 -10 0 -5 7 -10 15
-10 12 0 15 -14 15 -68 0 -75 9 -92 52 -92 34 0 39 27 6 32 -21 3 -23 9 -26
66 l-3 63 26 -7 c19 -5 25 -2 25 10 0 10 -9 16 -25 16 -20 0 -25 5 -25 25 0
16 -6 25 -15 25 -9 0 -15 -9 -15 -25z"/>
<path d="M1370 683 c-8 -3 -25 -15 -37 -26 -33 -29 -32 -105 0 -135 31 -29 78
-28 112 1 22 18 27 31 27 71 0 34 -6 54 -19 66 -20 20 -60 31 -83 23z m54 -39
c19 -18 21 -85 4 -102 -19 -19 -66 -15 -78 7 -35 66 26 144 74 95z"/>
<path d="M1576 674 c-14 -7 -26 -9 -26 -3 0 5 -7 9 -15 9 -12 0 -15 -17 -15
-90 0 -73 3 -90 15 -90 12 0 15 14 15 65 0 57 3 66 24 80 43 28 56 12 56 -72
0 -66 2 -74 18 -71 15 3 17 13 13 78 -2 41 -7 80 -12 86 -16 19 -46 23 -73 8z"/>
<path d="M730 607 c0 -59 4 -77 18 -90 22 -20 45 -21 75 -6 16 9 22 9 25 0 2
-6 8 -11 13 -11 5 0 9 41 9 90 0 73 -3 90 -15 90 -12 0 -15 -14 -15 -64 0 -70
-12 -90 -52 -84 -21 3 -23 8 -26 76 -2 55 -6 72 -17 72 -12 0 -15 -16 -15 -73z"/>
<path d="M930 590 c0 -73 3 -90 15 -90 12 0 15 17 15 90 0 73 -3 90 -15 90
-12 0 -15 -17 -15 -90z"/>
</g>
</svg>
