<?xml version="1.0" standalone="no"?>
<!DOCTYPE svg PUBLIC "-//W3C//DTD SVG 20010904//EN"
 "http://www.w3.org/TR/2001/REC-SVG-20010904/DTD/svg10.dtd">
<svg version="1.0" xmlns="http://www.w3.org/2000/svg"
 width="300.000000pt" height="133.000000pt" viewBox="0 0 300.000000 133.000000"
 preserveAspectRatio="xMidYMid meet">
<metadata>
Created by potrace 1.10, written by Peter Selinger 2001-2011
</metadata>
<g transform="translate(0.000000,133.000000) scale(0.050000,-0.050000)"
fill="#000000" stroke="none">
<path d="M4088 1320 c-194 -335 -396 -680 -450 -766 -54 -86 -98 -161 -98
-165 0 -5 61 -9 135 -9 l135 1 293 504 c160 278 318 552 350 610 73 133 70
134 114 -52 l37 -157 -225 -388 c-124 -213 -242 -412 -262 -441 -53 -76 -51
-77 98 -77 l135 0 150 271 c83 148 160 284 171 302 17 25 39 -34 100 -271 l77
-302 128 0 c114 0 127 4 114 35 -22 51 -229 811 -230 839 0 14 36 81 80 150
l79 126 -123 10 -124 10 -44 176 c-53 212 -41 198 -177 201 l-110 3 -353 -610z"/>
<path d="M2039 1525 c-15 -196 3 -516 30 -521 27 -6 31 30 31 265 0 228 -5
271 -30 271 -16 0 -31 -7 -31 -15z"/>
<path d="M1848 1491 c-14 -37 6 -71 42 -71 37 0 53 29 38 68 -15 40 -66 42
-80 3z"/>
<path d="M1049 1474 c-6 -15 -8 -125 -5 -245 l6 -219 100 -5 c180 -10 279 99
195 212 -30 41 -34 63 -19 97 28 64 1 144 -58 167 -74 28 -207 24 -219 -7z
m179 -46 c82 -31 27 -148 -70 -148 -31 0 -38 14 -38 80 0 83 26 99 108 68z
m60 -253 c34 -54 -9 -104 -95 -111 l-73 -6 0 82 0 82 73 -6 c43 -3 82 -21 95
-41z"/>
<path d="M2220 1410 c0 -31 -11 -50 -30 -50 -16 0 -30 -9 -30 -21 0 -11 14
-25 30 -32 22 -8 30 -43 30 -135 0 -70 11 -135 24 -148 35 -35 136 -31 136 6
0 17 -17 30 -38 30 -47 0 -62 38 -62 152 0 81 4 88 50 88 31 0 50 11 50 30 0
19 -19 30 -50 30 -40 0 -50 10 -50 50 0 31 -11 50 -30 50 -19 0 -30 -19 -30
-50z"/>
<path d="M2706 1361 c-93 -40 -122 -245 -46 -321 60 -60 180 -54 242 12 136
145 -15 385 -196 309z m143 -72 c72 -73 25 -229 -69 -229 -99 0 -138 142 -60
220 48 48 86 51 129 9z"/>
<path d="M3144 1349 c-24 -18 -44 -22 -44 -10 0 11 -13 21 -30 21 -24 0 -30
-33 -30 -180 0 -147 6 -180 30 -180 24 0 30 28 30 130 0 116 5 132 50 162 80
53 110 11 110 -154 0 -127 3 -138 42 -138 66 0 49 286 -20 342 -56 46 -80 47
-138 7z"/>
<path d="M1460 1211 c0 -108 8 -157 31 -180 36 -35 140 -42 160 -10 8 14 22
13 41 -3 44 -36 49 -18 54 170 4 152 0 172 -31 172 -30 0 -35 -19 -35 -126 0
-135 -21 -174 -92 -174 -55 0 -68 34 -68 182 0 92 -7 118 -30 118 -24 0 -30
-30 -30 -149z"/>
<path d="M1860 1180 c0 -147 6 -180 30 -180 24 0 30 33 30 180 0 147 -6 180
-30 180 -24 0 -30 -33 -30 -180z"/>
</g>
</svg>
