<?xml version="1.0" standalone="no"?>
<!DOCTYPE svg PUBLIC "-//W3C//DTD SVG 20010904//EN"
 "http://www.w3.org/TR/2001/REC-SVG-20010904/DTD/svg10.dtd">
<svg version="1.0" xmlns="http://www.w3.org/2000/svg"
 width="900.000000pt" height="198.000000pt" viewBox="0 0 900.000000 198.000000"
 preserveAspectRatio="xMidYMid meet">
<metadata>
Created by potrace 1.10, written by Peter Selinger 2001-2011
</metadata>
<g transform="translate(0.000000,198.000000) scale(0.100000,-0.100000)"
fill="#000000" stroke="none">
<path d="M2245 1822 c-54 -10 -148 -65 -184 -109 -35 -42 -47 -101 -57 -268
-5 -102 -9 -123 -27 -142 -11 -13 -30 -23 -43 -23 -34 0 -162 -70 -216 -119
-60 -53 -103 -115 -111 -159 -11 -54 4 -252 20 -268 22 -21 168 -19 213 4 30
15 36 24 46 70 11 47 31 88 40 79 2 -2 8 -27 14 -55 17 -93 12 -102 -167 -279
-191 -187 -197 -200 -103 -220 30 -6 134 -11 230 -12 211 -1 241 8 251 74 3
22 14 56 25 75 23 45 118 140 139 140 23 0 119 -98 144 -148 12 -23 21 -55 21
-71 0 -22 8 -35 27 -48 24 -16 53 -18 243 -18 337 1 338 3 105 232 -171 167
-170 165 -166 248 5 103 41 98 59 -8 10 -58 48 -77 158 -77 116 0 114 -3 117
166 l2 141 -30 42 c-42 61 -136 143 -198 174 -30 14 -84 31 -120 37 -85 13
-94 17 -101 43 -3 12 -6 83 -6 159 0 114 -3 145 -21 190 -22 58 -58 105 -99
131 -29 19 -146 29 -205 19z m237 -142 c46 -35 58 -78 58 -197 -1 -230 -47
-293 -215 -293 -122 0 -211 46 -247 128 -20 44 -20 48 -4 129 25 128 80 233
108 205 19 -19 58 -13 123 18 74 35 141 39 177 10z m-214 -547 c16 -22 12 -47
-8 -51 -22 -4 -85 52 -75 67 10 17 66 6 83 -16z m178 15 c4 -7 -8 -25 -32 -44
-33 -28 -41 -31 -53 -20 -8 9 -10 22 -6 36 10 33 76 53 91 28z m541 -274 c21
-28 7 -64 -39 -106 -34 -31 -49 -38 -83 -38 -34 0 -45 5 -63 30 -42 57 -16
122 53 133 56 9 118 0 132 -19z m-1173 -5 c33 -26 35 -71 4 -93 -27 -19 -113
-21 -148 -3 -30 15 -49 79 -30 102 20 24 141 20 174 -6z"/>
<path d="M2310 1506 c0 -8 5 -18 10 -21 6 -3 10 -17 10 -30 0 -31 18 -41 37
-22 17 16 11 48 -13 72 -19 19 -44 19 -44 1z"/>
<path d="M2217 1363 c-19 -18 15 -38 86 -48 51 -8 99 8 62 20 -11 4 -37 13
-58 21 -40 15 -79 18 -90 7z"/>
<path d="M7970 1683 c-145 -29 -286 -108 -357 -200 -37 -48 -88 -146 -102
-198 -41 -142 -50 -315 -26 -475 17 -115 35 -175 69 -229 14 -22 26 -45 26
-50 0 -20 102 -111 161 -144 104 -56 173 -71 344 -71 195 0 265 18 395 101 55
36 128 114 155 167 66 126 72 144 90 265 41 264 -8 514 -130 666 -32 40 -139
113 -195 134 -63 23 -224 51 -290 50 -36 -1 -99 -8 -140 -16z m290 -242 c78
-35 133 -104 171 -216 19 -56 19 -374 0 -430 -41 -118 -97 -192 -175 -229
-116 -55 -282 -39 -370 36 -91 78 -126 188 -126 393 0 197 29 295 114 383 67
71 135 93 261 87 51 -2 96 -11 125 -24z"/>
<path d="M415 1653 c-9 -9 -21 -27 -26 -40 -5 -14 -9 -281 -9 -614 0 -650 -1
-636 61 -658 78 -27 546 -4 663 33 222 70 354 248 386 521 42 355 -91 629
-352 724 -114 42 -198 51 -458 51 -218 0 -251 -2 -265 -17z m544 -217 c122
-34 214 -146 245 -298 20 -98 20 -166 0 -264 -22 -108 -57 -176 -116 -229 -84
-75 -121 -87 -283 -88 l-140 -2 -3 444 c-2 349 1 447 10 453 19 13 224 2 287
-16z"/>
<path d="M3192 1647 l-22 -23 0 -618 c0 -383 4 -624 10 -636 17 -32 67 -40
239 -40 181 0 389 20 462 43 67 22 159 72 206 111 47 41 123 153 146 217 28
74 47 206 47 320 0 288 -107 482 -318 580 -116 54 -223 69 -501 69 -246 0
-248 0 -269 -23z m508 -202 c87 -18 138 -44 185 -92 98 -100 138 -293 101
-486 -28 -145 -91 -232 -204 -284 -52 -23 -70 -26 -197 -27 l-140 -1 -3 439
c-1 316 1 443 9 452 16 19 157 18 249 -1z"/>
<path d="M5011 1644 c-21 -26 -21 -35 -21 -641 0 -395 4 -621 10 -633 6 -11
27 -24 48 -30 91 -25 540 -2 652 33 264 84 400 305 400 651 0 248 -87 434
-253 540 -133 85 -244 106 -567 106 l-249 0 -20 -26z m510 -199 c219 -46 326
-243 290 -533 -20 -165 -86 -269 -206 -326 -53 -25 -74 -28 -193 -33 -109 -5
-136 -3 -143 8 -14 23 -11 873 3 887 17 17 162 15 249 -3z"/>
<path d="M6606 1654 c-9 -8 -16 -17 -16 -18 0 -2 -12 -34 -26 -72 -14 -38 -29
-82 -34 -99 -5 -16 -18 -55 -29 -85 -12 -30 -46 -127 -76 -215 -29 -88 -63
-185 -75 -215 -11 -30 -45 -127 -75 -215 -30 -88 -68 -200 -85 -248 -50 -147
-44 -157 97 -157 115 0 124 6 158 117 15 49 36 112 48 141 l21 52 243 0 c285
0 251 18 308 -160 21 -68 45 -122 57 -132 16 -15 40 -18 128 -18 95 0 109 2
125 20 18 20 18 24 -33 173 -29 84 -57 166 -62 182 -9 31 -96 277 -125 355 -9
25 -20 59 -25 75 -5 17 -23 68 -40 115 -17 47 -45 126 -62 175 -17 50 -39 115
-50 144 -36 106 -26 101 -203 101 -126 0 -156 -3 -169 -16z m169 -304 c25 -48
166 -481 159 -491 -3 -5 -82 -9 -175 -9 -139 0 -171 3 -175 14 -3 8 8 57 26
108 17 51 35 107 40 123 19 61 89 266 95 275 9 15 13 12 30 -20z"/>
</g>
</svg>
